<svg viewBox="0 0 16 16" xmlns="http://www.w3.org/2000/svg">
<path fill-rule="evenodd" clip-rule="evenodd" d="M7.33464 2.99902C6.41464 2.99902 5.66797 3.74536 5.66797 4.66569C5.66797 5.58602 6.41464 6.33236 7.33464 6.33236C8.25464 6.33236 9.0013 5.58602 9.0013 4.66569C9.0013 3.74536 8.25464 2.99902 7.33464 2.99902ZM4.33203 4.66602C4.33203 3.00902 5.67536 1.66602 7.33203 1.66602C8.9887 1.66602 10.332 3.00902 10.332 4.66602C10.332 6.32302 8.9887 7.66602 7.33203 7.66602C5.67536 7.66602 4.33203 6.32302 4.33203 4.66602ZM5.55536 9.99927C4.34203 9.99927 3.33203 9.99827 3.33203 11.2659V12.3326H11.332V11.2659C11.332 9.99827 10.322 9.99927 9.1087 9.99927H5.55536ZM2 11.266C2 9.27768 3.59333 8.66602 5.55667 8.66602H9.11C11.0733 8.66602 12.6667 9.27768 12.6667 11.266V13.066C12.6667 13.3973 12.4 13.666 12.0733 13.666H2.59333C2.26667 13.666 2 13.3973 2 13.066V11.266Z"/>
<circle cx="8" cy="5" r="2"/>
<rect x="4" y="10"/>
<mask id="path-4-outside-1_3039_8893" maskUnits="userSpaceOnUse" x="2.66797" y="0.666016">
<rect x="2.66797" y="0.666016"/>
<path fill-rule="evenodd" clip-rule="evenodd" d="M6 4.66602C6 3.00902 7.34333 1.66602 9 1.66602C10.6567 1.66602 12 3.00902 12 4.66602C12 6.32302 10.6567 7.66602 9 7.66602C7.34333 7.66602 6 6.32302 6 4.66602ZM3.66797 11.266C3.66797 9.27768 5.2613 8.66602 7.22464 8.66602H10.778C12.7413 8.66602 14.3346 9.27768 14.3346 11.266V13.066C14.3346 13.3973 14.068 13.666 13.7413 13.666H4.2613C3.93464 13.666 3.66797 13.3973 3.66797 13.066V11.266Z"/>
</mask>
<path fill-rule="evenodd" clip-rule="evenodd" d="M6 4.66602C6 3.00902 7.34333 1.66602 9 1.66602C10.6567 1.66602 12 3.00902 12 4.66602C12 6.32302 10.6567 7.66602 9 7.66602C7.34333 7.66602 6 6.32302 6 4.66602ZM3.66797 11.266C3.66797 9.27768 5.2613 8.66602 7.22464 8.66602H10.778C12.7413 8.66602 14.3346 9.27768 14.3346 11.266V13.066C14.3346 13.3973 14.068 13.666 13.7413 13.666H4.2613C3.93464 13.666 3.66797 13.3973 3.66797 13.066V11.266Z"/>
<path d="M6.5 4.66602C6.5 3.28519 7.61944 2.16602 9 2.16602V1.16602C7.06723 1.16602 5.5 2.73284 5.5 4.66602H6.5ZM9 2.16602C10.3806 2.16602 11.5 3.28519 11.5 4.66602H12.5C12.5 2.73284 10.9328 1.16602 9 1.16602V2.16602ZM11.5 4.66602C11.5 6.04684 10.3806 7.16602 9 7.16602V8.16602C10.9328 8.16602 12.5 6.59919 12.5 4.66602H11.5ZM9 7.16602C7.61944 7.16602 6.5 6.04684 6.5 4.66602H5.5C5.5 6.59919 7.06723 8.16602 9 8.16602V7.16602ZM4.16797 11.266C4.16797 10.4322 4.48741 9.94849 4.97463 9.64465C5.50117 9.31629 6.27868 9.16602 7.22464 9.16602V8.16602C6.20726 8.16602 5.20644 8.32157 4.44547 8.79613C3.64519 9.29521 3.16797 10.1115 3.16797 11.266H4.16797ZM7.22464 9.16602H10.778V8.16602H7.22464V9.16602ZM10.778 9.16602C11.7239 9.16602 12.5014 9.31629 13.028 9.64465C13.5152 9.94849 13.8346 10.4322 13.8346 11.266H14.8346C14.8346 10.1115 14.3574 9.29521 13.5571 8.79613C12.7962 8.32157 11.7953 8.16602 10.778 8.16602V9.16602ZM13.8346 11.266V13.066H14.8346V11.266H13.8346ZM13.8346 13.066C13.8346 13.1259 13.7871 13.166 13.7413 13.166V14.166C14.3488 14.166 14.8346 13.6688 14.8346 13.066H13.8346ZM13.7413 13.166H4.2613V14.166H13.7413V13.166ZM4.2613 13.166C4.21549 13.166 4.16797 13.1259 4.16797 13.066H3.16797C3.16797 13.6688 3.65378 14.166 4.2613 14.166V13.166ZM4.16797 13.066V11.266H3.16797V13.066H4.16797Z" mask="url(#path-4-outside-1_3039_8893)"/>
</svg>
