<svg viewBox="0 0 24 24" xmlns="http://www.w3.org/2000/svg">
<path d="M2.5647 7.46631L2.62325 7.39653C4.04605 5.86839 7.36038 4.97181 11.4916 5.00068L13.0173 5.01179C17.1447 5.03746 20.413 5.97885 21.757 7.52826C22.7059 8.61849 22.2637 11.0213 21.4844 11.95C21.1011 12.4068 20.7322 12.3826 20.5486 12.3258C19.1717 12.0677 17.0003 11.3548 16.4146 10.8676L16.374 10.8336L16.3476 10.7877C16.1385 10.4133 16.2085 10.031 16.2718 9.69278C16.3539 9.2471 16.386 8.98214 16.0818 8.69016C15.9884 8.60311 15.4728 8.31318 12.7168 8.26862L11.5512 8.26127C8.85669 8.27482 8.33537 8.55085 8.23837 8.6381C7.92356 8.9231 7.9377 9.19225 7.99769 9.63608C8.0415 9.97552 8.09385 10.3589 7.86526 10.7292L7.83648 10.7764L7.79353 10.8096C7.18287 11.2874 4.976 11.9695 3.55522 12.2172C3.37309 12.272 2.95318 12.2828 2.56444 11.6691C1.95231 10.7058 1.68322 8.51682 2.5647 7.46631Z"/>
<path d="M12.2302 19.8058C12.2923 19.8854 12.4127 19.8854 12.4748 19.8058L14.6486 17.0556C14.7282 16.9546 14.6563 16.8052 14.5263 16.8052H13.0881V11.4794C13.0881 11.394 13.0182 11.3241 12.9328 11.3241H11.7683C11.6829 11.3241 11.613 11.394 11.613 11.4794V16.8033H10.1787C10.0487 16.8033 9.97688 16.9527 10.0565 17.0536L12.2302 19.8058Z"/>
</svg>
