<svg width="14" height="13" viewBox="0 0 14 13" xmlns="http://www.w3.org/2000/svg">
<path d="M8.20432 12.1333H8.14373C6.75688 12.0582 4.88315 10.6876 3.13168 8.46477L2.48507 7.64362C0.733608 5.4242 -0.183984 3.25337 0.0308188 1.83891C0.18063 0.841966 1.59392 0 2.40025 0C2.79681 0 2.94222 0.208178 2.99179 0.331929C3.44893 1.1843 4.01402 2.66584 4.01623 3.19785V3.23486L4.00411 3.26956C3.90277 3.54944 3.67805 3.6836 3.47867 3.80157C3.2165 3.9577 3.06779 4.05948 3.04907 4.35324C3.04466 4.4423 3.11736 4.84824 4.27289 6.3425L4.76748 6.96935C5.92631 8.40463 6.28983 8.5596 6.37575 8.57233C6.65554 8.6128 6.78663 8.48443 6.98711 8.25312C7.14132 8.07732 7.31427 7.87724 7.60067 7.83329L7.63702 7.82751L7.67227 7.83561C8.17678 7.94779 9.4678 8.82214 10.2014 9.47096C10.3072 9.54382 10.4922 9.76357 10.3457 10.247C10.1166 11.0069 9.1164 12.1333 8.20432 12.1333V12.1333Z" fill="#00B47E"/>
<path fill-rule="evenodd" clip-rule="evenodd" d="M7.63864 1.7334C7.61527 1.7334 7.59339 1.7449 7.58013 1.76415L6.99001 2.6212C6.82775 2.85685 6.99645 3.17784 7.28257 3.17784H7.31714H7.60131H12.9294C12.9686 3.17784 13.0004 3.14604 13.0004 3.1068V2.52666C13.0004 2.48743 12.9686 2.45562 12.9294 2.45562H8.09859L8.55755 1.78906C8.57378 1.7655 8.55691 1.7334 8.5283 1.7334H7.63864ZM12.2955 6.06673C12.3189 6.06673 12.3408 6.05523 12.354 6.03598L12.9442 5.17894C13.1064 4.94328 12.9377 4.62229 12.6516 4.62229H12.617H12.3329H7.0048C6.96556 4.62229 6.93376 4.65409 6.93376 4.69333V5.27347C6.93376 5.3127 6.96556 5.34451 7.0048 5.34451H11.8356L11.3766 6.01107C11.3604 6.03463 11.3773 6.06673 11.4059 6.06673H12.2955Z" fill="#C6EAE0"/>
</svg>
