<svg viewBox="0 0 18 18" xmlns="http://www.w3.org/2000/svg">
<rect opacity="0.01" />
<path fill-rule="evenodd" clip-rule="evenodd" d="M3.94521 5.74064C3.95257 5.74064 3.95958 5.74064 3.96696 5.74098L9.25841 2.2946C9.37911 2.20269 9.52997 2.14795 9.69348 2.14795C10.0903 2.14795 10.412 2.46968 10.412 2.86649C10.412 2.89948 10.4099 2.93177 10.4057 2.96334V14.9848C10.4099 15.0164 10.412 15.0486 10.412 15.0816C10.412 15.4785 10.0903 15.8002 9.69348 15.8002C9.51558 15.8002 9.35245 15.7356 9.2272 15.6282L3.94868 12.2103V12.2075H3.94519H1.78959C1.39277 12.2075 1.07104 11.8868 1.07104 11.4907V6.45743C1.07104 6.0613 1.38963 5.74064 1.78959 5.74064H3.94521ZM16.7258 7.35772L15.1095 8.97405L16.7258 10.5904C16.9279 10.7928 16.9293 11.1276 16.7234 11.3335C16.516 11.5409 16.1848 11.5402 15.9803 11.336L14.3639 9.71963L12.7476 11.336C12.543 11.5402 12.2119 11.5409 12.0045 11.3335C11.7986 11.1276 11.8 10.7928 12.0021 10.5904L13.6184 8.97405L12.0021 7.35772C11.8 7.15527 11.7986 6.82055 12.0045 6.61461C12.2119 6.40726 12.543 6.40795 12.7476 6.61214L14.3639 8.22851L15.9803 6.61214C16.1849 6.40796 16.5161 6.40726 16.7234 6.61461C16.9293 6.82055 16.9279 7.15527 16.7258 7.35772Z"/>
</svg>
