<svg viewBox="0 0 32 32" xmlns="http://www.w3.org/2000/svg">
<path fill-rule="evenodd" clip-rule="evenodd" d="M9 9C9 8.72386 9.22386 8.5 9.5 8.5H11.5C11.7761 8.5 12 8.72386 12 9V11C12 11.2761 11.7761 11.5 11.5 11.5H9.5C9.22386 11.5 9 11.2761 9 11V9ZM21 9C21 8.72386 21.2239 8.5 21.5 8.5H23.5C23.7761 8.5 24 8.72386 24 9V11C24 11.2761 23.7761 11.5 23.5 11.5H21.5C21.2239 11.5 21 11.2761 21 11V9ZM9.5 14.5C9.22386 14.5 9 14.7239 9 15V17C9 17.2761 9.22386 17.5 9.5 17.5H11.5C11.7761 17.5 12 17.2761 12 17V15C12 14.7239 11.7761 14.5 11.5 14.5H9.5ZM9 21C9 20.7239 9.22386 20.5 9.5 20.5H11.5C11.7761 20.5 12 20.7239 12 21V23C12 23.2761 11.7761 23.5 11.5 23.5H9.5C9.22386 23.5 9 23.2761 9 23V21ZM15.5 8.5C15.2239 8.5 15 8.72386 15 9V11C15 11.2761 15.2239 11.5 15.5 11.5H17.5C17.7761 11.5 18 11.2761 18 11V9C18 8.72386 17.7761 8.5 17.5 8.5H15.5ZM15 15C15 14.7239 15.2239 14.5 15.5 14.5H17.5C17.7761 14.5 18 14.7239 18 15V17C18 17.2761 17.7761 17.5 17.5 17.5H15.5C15.2239 17.5 15 17.2761 15 17V15ZM15.5 20.5C15.2239 20.5 15 20.7239 15 21V23C15 23.2761 15.2239 23.5 15.5 23.5H17.5C17.7761 23.5 18 23.2761 18 23V21C18 20.7239 17.7761 20.5 17.5 20.5H15.5ZM21 15C21 14.7239 21.2239 14.5 21.5 14.5H23.5C23.7761 14.5 24 14.7239 24 15V17C24 17.2761 23.7761 17.5 23.5 17.5H21.5C21.2239 17.5 21 17.2761 21 17V15ZM21.5 20.5C21.2239 20.5 21 20.7239 21 21V23C21 23.2761 21.2239 23.5 21.5 23.5H23.5C23.7761 23.5 24 23.2761 24 23V21C24 20.7239 23.7761 20.5 23.5 20.5H21.5Z"/>
</svg>
