<svg viewBox="0 0 16 16" xmlns="http://www.w3.org/2000/svg">
<rect opacity="0.01" />
<path fill-rule="evenodd" clip-rule="evenodd" d="M2.25 1.75H13.75C14.0266 1.75 14.25 1.97344 14.25 2.25V13.75C14.25 14.0266 14.0266 14.25 13.75 14.25H2.25C1.97344 14.25 1.75 14.0266 1.75 13.75V2.25C1.75 1.97344 1.97344 1.75 2.25 1.75ZM2.875 13.125H13.125V2.875H2.875V13.125ZM7.6875 6.25H10.5625C10.6313 6.25 10.6875 6.19375 10.6875 6.125V5.375C10.6875 5.30625 10.6313 5.25 10.5625 5.25H7.6875C7.61875 5.25 7.5625 5.30625 7.5625 5.375V6.125C7.5625 6.19375 7.61875 6.25 7.6875 6.25ZM10.5625 8.5H7.6875C7.61875 8.5 7.5625 8.44375 7.5625 8.375V7.625C7.5625 7.55625 7.61875 7.5 7.6875 7.5H10.5625C10.6313 7.5 10.6875 7.55625 10.6875 7.625V8.375C10.6875 8.44375 10.6313 8.5 10.5625 8.5ZM7.6875 10.75H10.5625C10.6313 10.75 10.6875 10.6938 10.6875 10.625V9.875C10.6875 9.80625 10.6313 9.75 10.5625 9.75H7.6875C7.61875 9.75 7.5625 9.80625 7.5625 9.875V10.625C7.5625 10.6938 7.61875 10.75 7.6875 10.75ZM5.9375 6.375C5.59232 6.375 5.3125 6.09518 5.3125 5.75C5.3125 5.40482 5.59232 5.125 5.9375 5.125C6.28268 5.125 6.5625 5.40482 6.5625 5.75C6.5625 6.09518 6.28268 6.375 5.9375 6.375ZM5.3125 8C5.3125 8.34518 5.59232 8.625 5.9375 8.625C6.28268 8.625 6.5625 8.34518 6.5625 8C6.5625 7.65482 6.28268 7.375 5.9375 7.375C5.59232 7.375 5.3125 7.65482 5.3125 8ZM5.9375 10.875C5.59232 10.875 5.3125 10.5952 5.3125 10.25C5.3125 9.90482 5.59232 9.625 5.9375 9.625C6.28268 9.625 6.5625 9.90482 6.5625 10.25C6.5625 10.5952 6.28268 10.875 5.9375 10.875Z"/>
</svg>
