<svg viewBox="0 0 20 20" xmlns="http://www.w3.org/2000/svg">
<path fill-rule="evenodd" clip-rule="evenodd" d="M15.625 16.375C15.8321 16.375 16 16.5429 16 16.75V17.5C16 17.7071 15.8321 17.875 15.625 17.875H4.375C4.16789 17.875 4 17.7071 4 17.5V16.75C4 16.5429 4.16789 16.375 4.375 16.375H15.625ZM16.75 4C17.1642 4 17.5 4.33579 17.5 4.75V13.75C17.5 14.1642 17.1642 14.5 16.75 14.5H3.25C2.83579 14.5 2.5 14.1642 2.5 13.75V4.75C2.5 4.33579 2.83579 4 3.25 4H16.75ZM7.375 8.875H5.875C5.69378 8.875 5.54259 9.00354 5.50762 9.17442L5.5 9.25V10C5.5 10.1812 5.62854 10.3324 5.79942 10.3674L5.875 10.375H7.375C7.55622 10.375 7.70741 10.2465 7.74238 10.0756L7.75 10V9.25C7.75 9.04289 7.58211 8.875 7.375 8.875ZM14.125 8.875H9.625C9.44378 8.875 9.29259 9.00354 9.25762 9.17442L9.25 9.25V10C9.25 10.1812 9.37854 10.3324 9.54942 10.3674L9.625 10.375H14.125C14.3062 10.375 14.4574 10.2465 14.4924 10.0756L14.5 10V9.25C14.5 9.04289 14.3321 8.875 14.125 8.875Z"/>
</svg>
