<svg width="16" height="20" viewBox="0 0 16 20" xmlns="http://www.w3.org/2000/svg">
<mask id="mask0_3220_103071" style="mask-type:alpha" maskUnits="userSpaceOnUse" x="0" y="0" width="16" height="20">
<path d="M1.10345 0H11.3434C11.4888 0 11.6284 0.0562739 11.7317 0.156579L15.8366 4.14169C15.9412 4.24319 16 4.38143 16 4.52565V18.9189C16 19.516 15.506 20 14.8966 20H1.10345C0.494031 20 0 19.516 0 18.9189V1.08108C0 0.484016 0.494031 0 1.10345 0Z"/>
</mask>
<g mask="url(#mask0_3220_103071)">
<path d="M1.10345 0H11.3434C11.4888 0 11.6284 0.0562739 11.7317 0.156579L15.8366 4.14169C15.9412 4.24319 16 4.38143 16 4.52565V18.9189C16 19.516 15.506 20 14.8966 20H1.10345C0.494031 20 0 19.516 0 18.9189V1.08108C0 0.484016 0.494031 0 1.10345 0Z" fill="#165DFF"/>
<path fill-rule="evenodd" clip-rule="evenodd" d="M11.5703 0H15.9841V4.32433H12.6738C12.0643 4.32433 11.5703 3.84031 11.5703 3.24324V0Z" fill="#94BFFF"/>
</g>
<path d="M4.10584 8.71596V11.59C4.10584 11.896 4.05184 12.118 3.94384 12.256C3.83584 12.394 3.66184 12.466 3.42784 12.466C3.00184 12.466 2.79184 12.22 2.79184 11.728V11.596H2.08984V11.734C2.08984 12.154 2.20384 12.484 2.43184 12.724C2.65384 12.964 2.98384 13.084 3.41584 13.084C3.91384 13.084 4.27384 12.958 4.50184 12.706C4.70584 12.466 4.80784 12.106 4.80784 11.614V8.71596H4.10584Z"/>
<path d="M5.64836 8.71596V13H6.35036V11.356H7.41236C8.45636 11.356 8.97836 10.912 8.97836 10.03C8.97836 9.15396 8.45636 8.71596 7.42436 8.71596H5.64836ZM6.35036 9.31596H7.37036C7.67636 9.31596 7.90436 9.36996 8.04836 9.48396C8.19236 9.59196 8.27036 9.77196 8.27036 10.03C8.27036 10.288 8.19836 10.474 8.05436 10.588C7.91036 10.696 7.68236 10.756 7.37036 10.756H6.35036V9.31596Z"/>
<path d="M11.44 8.63196C10.804 8.63196 10.3 8.84796 9.928 9.29196C9.574 9.70596 9.4 10.234 9.4 10.876C9.4 11.512 9.574 12.034 9.928 12.436C10.306 12.868 10.834 13.084 11.518 13.084C11.902 13.084 12.244 13.036 12.556 12.94C12.85 12.844 13.108 12.712 13.336 12.532V10.72H11.5V11.32H12.634V12.202C12.49 12.286 12.34 12.352 12.172 12.4C11.992 12.448 11.8 12.472 11.596 12.472C11.074 12.472 10.69 12.328 10.444 12.04C10.216 11.77 10.102 11.38 10.102 10.876C10.102 10.348 10.228 9.94596 10.486 9.65796C10.72 9.38196 11.038 9.24996 11.44 9.24996C11.764 9.24996 12.028 9.31596 12.226 9.45396C12.418 9.59196 12.55 9.79596 12.61 10.072H13.318C13.24 9.59196 13.048 9.23796 12.742 8.99796C12.424 8.75196 11.992 8.63196 11.44 8.63196Z"/>
</svg>
