<svg viewBox="0 0 16 16" xmlns="http://www.w3.org/2000/svg">
<path d="M12.8131 14.0017L12.7473 14.0075C11.2346 14.0615 9.07597 12.8221 6.97302 10.6895L6.1966 9.9017C4.09395 7.77274 2.90117 5.6148 3.00643 4.13154C3.07889 3.08626 4.53733 2.08122 5.41289 2.00462C5.84349 1.96695 6.02021 2.16843 6.08523 2.29171C6.65875 3.12982 7.40641 4.60836 7.45694 5.15837L7.46029 5.19664L7.45027 5.23368C7.36555 5.53276 7.13368 5.69286 6.92786 5.83381C6.65731 6.02019 6.50504 6.13957 6.51129 6.44517C6.51456 6.53768 6.63024 6.95061 8.02017 8.38622L8.61394 8.98753C10.0021 10.3618 10.4109 10.4876 10.5053 10.4926C10.8128 10.5078 10.9435 10.3626 11.1403 10.1044C11.2918 9.9079 11.4615 9.68454 11.7685 9.61188L11.8075 9.60245L11.8465 9.60747C12.4045 9.67557 13.8854 10.4572 14.7407 11.0585C14.8622 11.1238 15.083 11.3335 14.9676 11.8474C14.7876 12.655 13.8035 13.915 12.8131 14.0017Z"/>
</svg>
