<?xml version="1.0" standalone="no"?><!DOCTYPE svg PUBLIC "-//W3C//DTD SVG 1.1//EN" "http://www.w3.org/Graphics/SVG/1.1/DTD/svg11.dtd"><svg class="icon" width="200px" height="200.00px" viewBox="0 0 1024 1024" version="1.1" xmlns="http://www.w3.org/2000/svg"><path d="M91.657 158.028v707.943h840.686v-707.943h-840.686zM890.131 820.961h-753.384l-0.038-615.080 753.421 0.039v615.040zM289.362 442.030c-38.623 0-69.97 31.311-69.97 69.97 0 38.662 31.347 69.971 69.97 69.971 38.624 0 69.971-31.346 69.971-69.971-0.001-38.624-31.313-69.97-69.971-69.97v0zM512.001 442.030c-38.663 0-69.97 31.347-69.97 69.97 0 38.625 31.308 69.971 69.97 69.971 38.66 0 69.934-31.346 69.934-69.971 0-38.624-31.274-69.97-69.934-69.97v0zM734.637 442.030c-38.659 0-69.969 31.347-69.969 69.97 0 38.625 31.346 69.971 69.969 69.971 38.625 0 69.971-31.346 69.971-69.971 0-38.624-31.346-69.97-69.971-69.97v0zM734.637 442.030z" /></svg>