<svg  viewBox="0 0 24 24"  xmlns="http://www.w3.org/2000/svg">
  <rect width="24" height="24" rx="12" fill="#404855"/>
  <path d="M16.7022 6.80272C16.546 6.64651 16.2927 6.64651 16.1365 6.80272L12.1767 10.7625L8.04014 6.62595C7.88393 6.46974 7.63067 6.46974 7.47446 6.62595L6.97948 7.12092C6.82327 7.27713 6.82327 7.5304 6.97948 7.68661L11.1161 11.8232L6.8027 16.1365C6.64649 16.2927 6.64649 16.546 6.8027 16.7022L7.29768 17.1972C7.45389 17.3534 7.70715 17.3534 7.86336 17.1972L12.1767 12.8838L16.3133 17.0204C16.4695 17.1766 16.7228 17.1766 16.879 17.0204L17.374 16.5254C17.5302 16.3692 17.5302 16.116 17.374 15.9598L13.2374 11.8232L17.1972 7.86338C17.3534 7.70717 17.3534 7.45391 17.1972 7.2977L16.7022 6.80272Z" fill="white"/>
</svg>
