<svg viewBox="0 0 16 16" xmlns="http://www.w3.org/2000/svg">
<path fill-rule="evenodd" clip-rule="evenodd" d="M3.75 10.5003C3.98012 10.5003 4.16667 10.6869 4.16667 10.917V12.167H11.8333V10.917C11.8333 10.6869 12.0199 10.5003 12.25 10.5003H13.0833C13.3135 10.5003 13.5 10.6869 13.5 10.917V13.0003C13.5 13.4606 13.1269 13.8337 12.6667 13.8337H3.33333C2.8731 13.8337 2.5 13.4606 2.5 13.0003V10.917C2.5 10.6869 2.68655 10.5003 2.91667 10.5003H3.75ZM8.39578 2.28903L11.5206 5.41382C11.6833 5.57654 11.6833 5.84036 11.5206 6.00308L10.9313 6.59233C10.7686 6.75505 10.5048 6.75505 10.3421 6.59233L8.83325 5.08363L8.83333 9.28004C8.83333 9.51016 8.64679 9.69671 8.41667 9.69671H7.58333C7.35321 9.69671 7.16667 9.51016 7.16667 9.28004L7.16624 5.28574L5.86024 6.59233C5.69753 6.75505 5.43371 6.75505 5.27099 6.59233L4.68173 6.00308C4.51902 5.84036 4.51902 5.57654 4.68173 5.41382L7.80652 2.28903C7.96924 2.12631 8.23306 2.12631 8.39578 2.28903Z"/>
</svg>
