<svg width="16" height="16" viewBox="0 0 16 16" xmlns="http://www.w3.org/2000/svg">
<path fill-rule="evenodd" clip-rule="evenodd" d="M13.666 1.51996C14.2371 1.51996 14.7 2.01742 14.7 2.63107V13.3688C14.7 13.9825 14.2371 14.48 13.666 14.48H2.33394C1.7629 14.48 1.29999 13.9825 1.29999 13.3688V2.63107C1.29999 2.01742 1.7629 1.51996 2.33394 1.51996H13.666Z"/>
<path fill-rule="evenodd" clip-rule="evenodd" d="M4.5 6.10002C4.5 5.98957 4.58954 5.90002 4.7 5.90002H11.3C11.4105 5.90002 11.5 5.98957 11.5 6.10002V7.05002C11.5 7.16048 11.4105 7.25002 11.3 7.25002H4.7C4.58954 7.25002 4.5 7.16048 4.5 7.05002V6.10002ZM4.5 9.10002C4.5 8.98957 4.58954 8.90002 4.7 8.90002H5.65C5.76046 8.90002 5.85 8.98957 5.85 9.10002V10.05C5.85 10.1605 5.76046 10.25 5.65 10.25H4.7C4.58954 10.25 4.5 10.1605 4.5 10.05V9.10002ZM7.2 8.90002C7.08954 8.90002 7 8.98957 7 9.10002V10.05C7 10.1605 7.08954 10.25 7.2 10.25H8.15C8.26046 10.25 8.35 10.1605 8.35 10.05V9.10002C8.35 8.98957 8.26046 8.90002 8.15 8.90002H7.2Z" fill="white"/>
</svg>
