<svg viewBox="0 0 16 16" xmlns="http://www.w3.org/2000/svg">
<path fill-rule="evenodd" clip-rule="evenodd" d="M13.16 7.5C13.16 10.3498 10.8498 12.66 8 12.66C5.15021 12.66 2.84 10.3498 2.84 7.5C2.84 4.65021 5.15021 2.34 8 2.34C10.8498 2.34 13.16 4.65021 13.16 7.5ZM14.5 7.5C14.5 11.0899 11.5899 14 8 14C4.41015 14 1.5 11.0899 1.5 7.5C1.5 3.91015 4.41015 1 8 1C11.5899 1 14.5 3.91015 14.5 7.5ZM6.47384 6.52619C6.21219 6.26454 5.78797 6.26454 5.52632 6.52619C5.26467 6.78785 5.26467 7.21207 5.52632 7.47372L7.45561 9.40301C7.75631 9.70371 8.24385 9.70371 8.54455 9.40301L10.4738 7.47372C10.7355 7.21207 10.7355 6.78785 10.4738 6.52619C10.2122 6.26454 9.78797 6.26454 9.52632 6.52619L8.00008 8.05243L6.47384 6.52619Z"/>
</svg>
