<svg viewBox="0 0 16 16" xmlns="http://www.w3.org/2000/svg">
<path fill-rule="evenodd" clip-rule="evenodd" d="M4 3.34H12C12.3645 3.34 12.66 3.63549 12.66 4V12C12.66 12.3645 12.3645 12.66 12 12.66H4C3.63549 12.66 3.34 12.3645 3.34 12V4C3.34 3.63549 3.63549 3.34 4 3.34ZM2 4C2 2.89543 2.89543 2 4 2H12C13.1046 2 14 2.89543 14 4V12C14 13.1046 13.1046 14 12 14H4C2.89543 14 2 13.1046 2 12V4ZM11.5043 6.44116C11.748 6.16269 11.7198 5.73941 11.4413 5.49574C11.1628 5.25207 10.7395 5.28029 10.4959 5.55877L7.46744 9.01981L5.97384 7.5262C5.71219 7.26455 5.28797 7.26455 5.02632 7.5262C4.76467 7.78786 4.76467 8.21208 5.02632 8.47373L6.95074 10.3981C7.26569 10.7131 7.78138 10.6959 8.07469 10.3607L11.5043 6.44116Z"/>
</svg>
