<svg viewBox="0 0 16 16" xmlns="http://www.w3.org/2000/svg">
<path fill-rule="evenodd" clip-rule="evenodd" d="M13.0699 2.93C11.6577 1.51779 9.37663 1.43308 7.97613 2.83358L6.36907 4.44064C4.96857 5.84114 5.05328 8.12216 6.46549 9.53438C6.77147 9.84036 7.11741 10.084 7.48609 10.2636C7.81873 10.4258 8.21979 10.2875 8.3819 9.95488C8.544 9.62225 8.40576 9.22118 8.07313 9.05908C7.83682 8.94391 7.61297 8.78681 7.41302 8.58685C6.48208 7.65592 6.48045 6.2243 7.31659 5.38816L8.92365 3.7811C9.75979 2.94496 11.1914 2.94659 12.1223 3.87752C13.0533 4.80846 13.0549 6.24008 12.2188 7.07622L11.4152 7.87975C11.1536 8.1414 11.1536 8.56562 11.4152 8.82727C11.6769 9.08892 12.1011 9.08892 12.3628 8.82727L13.1663 8.02374C14.5668 6.62324 14.4821 4.34221 13.0699 2.93ZM2.93 13.0699C4.34221 14.4821 6.62324 14.5668 8.02374 13.1663L9.6308 11.5593C11.0313 10.1588 10.9466 7.87775 9.53438 6.46554C9.2284 6.15955 8.88246 5.91594 8.51378 5.73627C8.18114 5.57416 7.78008 5.7124 7.61797 6.04503C7.45587 6.37767 7.59411 6.77873 7.92674 6.94084C8.16305 7.056 8.3869 7.2131 8.58685 7.41306C9.51779 8.34399 9.51942 9.77561 8.68328 10.6118L7.07622 12.2188C6.24008 13.055 4.80846 13.0533 3.87752 12.1224C2.94659 11.1915 2.94496 9.75984 3.7811 8.9237L4.58463 8.12017C4.84628 7.85852 4.84628 7.43429 4.58463 7.17264C4.32298 6.91099 3.89876 6.91099 3.63711 7.17264L2.83358 7.97617C1.43308 9.37667 1.51779 11.6577 2.93 13.0699Z"/>
</svg>
