<svg viewBox="0 0 16 16" xmlns="http://www.w3.org/2000/svg">
<path fill-rule="evenodd" clip-rule="evenodd" d="M3 2C2.44772 2 2 2.44772 2 3V5H14V3C14 2.44772 13.5523 2 13 2H3ZM14 6H2V13C2 13.5523 2.44772 14 3 14H13C13.5523 14 14 13.5523 14 13V6ZM5 8.2C5 8.08954 5.08954 8 5.2 8H7.8C7.91046 8 8 8.08954 8 8.2V8.8C8 8.91046 7.91046 9 7.8 9H5.2C5.08954 9 5 8.91046 5 8.8V8.2ZM5.2 10C5.08954 10 5 10.0895 5 10.2V10.8C5 10.9105 5.08954 11 5.2 11H10.8C10.9105 11 11 10.9105 11 10.8V10.2C11 10.0895 10.9105 10 10.8 10H5.2Z"/>
</svg>
