<svg viewBox="0 0 18 17" xmlns="http://www.w3.org/2000/svg">
<path d="M12.9205 3.92055C12.7253 3.72528 12.4087 3.72528 12.2134 3.92054L9.12166 7.0123L5.90828 3.79891C5.71302 3.60365 5.39643 3.60365 5.20117 3.79891L4.84762 4.15247C4.65236 4.34773 4.65236 4.66431 4.84762 4.85957L8.061 8.07297L4.84946 11.2845C4.6542 11.4798 4.6542 11.7964 4.84946 11.9916L5.20301 12.3452C5.39827 12.5404 5.71485 12.5404 5.91012 12.3452L9.12166 9.13363L12.2116 12.2235C12.4068 12.4188 12.7234 12.4188 12.9187 12.2235L13.2722 11.87C13.4675 11.6747 13.4675 11.3581 13.2722 11.1629L10.1823 8.07297L13.2741 4.98121C13.4693 4.78594 13.4693 4.46936 13.2741 4.2741L12.9205 3.92055Z"/>
</svg>
