<svg xmlns="http://www.w3.org/2000/svg">
<path fill-rule="evenodd" clip-rule="evenodd" d="M13.66 8C13.66 11.1259 11.1259 13.66 8 13.66C4.87407 13.66 2.34 11.1259 2.34 8C2.34 4.87407 4.87407 2.34 8 2.34C11.1259 2.34 13.66 4.87407 13.66 8ZM15 8C15 11.866 11.866 15 8 15C4.13401 15 1 11.866 1 8C1 4.13401 4.13401 1 8 1C11.866 1 15 4.13401 15 8ZM9.58831 5.34664C9.78357 5.15138 10.1002 5.15138 10.2954 5.34664L10.649 5.7002C10.8442 5.89546 10.8442 6.21204 10.649 6.4073L9.05798 7.99829L10.649 9.58928C10.8442 9.78454 10.8442 10.1011 10.649 10.2964L10.2954 10.6499C10.1002 10.8452 9.78357 10.8452 9.58831 10.6499L7.99732 9.05895L6.40633 10.6499C6.21106 10.8452 5.89448 10.8452 5.69922 10.6499L5.34567 10.2964C5.1504 10.1011 5.1504 9.78454 5.34567 9.58928L6.93666 7.99829L5.34567 6.4073C5.1504 6.21204 5.1504 5.89546 5.34567 5.7002L5.69922 5.34664C5.89448 5.15138 6.21106 5.15138 6.40633 5.34664L7.99732 6.93763L9.58831 5.34664Z"/>
</svg>
