<svg viewBox="0 0 17 16" xmlns="http://www.w3.org/2000/svg">
<path fill-rule="evenodd" clip-rule="evenodd" d="M8.5026 2.99902C7.5826 2.99902 6.83594 3.74536 6.83594 4.66569C6.83594 5.58602 7.5826 6.33236 8.5026 6.33236C9.4226 6.33236 10.1693 5.58602 10.1693 4.66569C10.1693 3.74536 9.4226 2.99902 8.5026 2.99902ZM5.5 4.66602C5.5 3.00902 6.84333 1.66602 8.5 1.66602C10.1567 1.66602 11.5 3.00902 11.5 4.66602C11.5 6.32302 10.1567 7.66602 8.5 7.66602C6.84333 7.66602 5.5 6.32302 5.5 4.66602ZM6.72333 9.99927C5.51 9.99927 4.5 9.99827 4.5 11.2659V12.3326H12.5V11.2659C12.5 9.99827 11.49 9.99927 10.2767 9.99927H6.72333ZM3.16797 11.266C3.16797 9.27768 4.7613 8.66602 6.72464 8.66602H10.278C12.2413 8.66602 13.8346 9.27768 13.8346 11.266V13.066C13.8346 13.3973 13.568 13.666 13.2413 13.666H3.7613C3.43464 13.666 3.16797 13.3973 3.16797 13.066V11.266Z"/>
</svg>
