<svg viewBox="0 0 16 16" xmlns="http://www.w3.org/2000/svg">
<path fill-rule="evenodd" clip-rule="evenodd" d="M7.49129 11.9818C9.42986 11.9818 11.2247 10.7487 12.8887 8.08245C11.2675 5.42576 9.47674 4.19869 7.49129 4.19869C5.50651 4.19869 3.72214 5.42521 2.11211 8.08244C3.76492 10.7492 5.55341 11.9818 7.49129 11.9818ZM7.49072 3.00037C9.8982 3.00037 11.9704 4.47196 13.7073 7.41515L13.8135 7.59773L13.925 7.79659C14.0261 7.97909 14.0249 8.20106 13.9219 8.38246L13.8022 8.59015C12.002 11.6489 9.89817 13.1782 7.49072 13.1782C5.12976 13.1782 3.06646 11.7074 1.3008 8.76566L1.21559 8.62217C1.18639 8.57247 1.15106 8.51109 1.1096 8.43806L1.07735 8.38109C0.975337 8.2004 0.974158 7.97977 1.07423 7.798L1.17516 7.61647C1.19492 7.58139 1.21289 7.54982 1.22907 7.52175C2.96713 4.50749 5.05435 3.00037 7.49072 3.00037ZM7.50055 5.69507C6.17794 5.69507 5.10576 6.76725 5.10576 8.08986C5.10576 9.41247 6.17794 10.4847 7.50055 10.4847C8.82316 10.4847 9.89535 9.41247 9.89535 8.08986C9.89535 6.76725 8.82316 5.69507 7.50055 5.69507ZM7.50034 6.89237C8.16164 6.89237 8.69773 7.42847 8.69773 8.08977C8.69773 8.75108 8.16164 9.28717 7.50034 9.28717C6.83903 9.28717 6.30294 8.75108 6.30294 8.08977C6.30294 7.42847 6.83903 6.89237 7.50034 6.89237Z"/>
</svg>
