<svg viewBox="0 0 16 16" xmlns="http://www.w3.org/2000/svg">
<path fill-rule="evenodd" clip-rule="evenodd" d="M8.0026 2.99902C7.0826 2.99902 6.33594 3.74536 6.33594 4.66569C6.33594 5.58602 7.0826 6.33236 8.0026 6.33236C8.9226 6.33236 9.66927 5.58602 9.66927 4.66569C9.66927 3.74536 8.9226 2.99902 8.0026 2.99902ZM5 4.66602C5 3.00902 6.34333 1.66602 8 1.66602C9.65667 1.66602 11 3.00902 11 4.66602C11 6.32302 9.65667 7.66602 8 7.66602C6.34333 7.66602 5 6.32302 5 4.66602ZM6.22333 9.99927C5.01 9.99927 4 9.99827 4 11.2659V12.3326H12V11.2659C12 9.99827 10.99 9.99927 9.77667 9.99927H6.22333ZM2.66797 11.266C2.66797 9.27768 4.2613 8.66602 6.22464 8.66602H9.77797C11.7413 8.66602 13.3346 9.27768 13.3346 11.266V13.066C13.3346 13.3973 13.068 13.666 12.7413 13.666H3.2613C2.93464 13.666 2.66797 13.3973 2.66797 13.066V11.266Z"/>
</svg>
