<svg viewBox="0 0 16 16" xmlns="http://www.w3.org/2000/svg">
<path fill-rule="evenodd" clip-rule="evenodd" d="M12 3.5H8.75V7.25H12.5V4C12.5 3.72386 12.2761 3.5 12 3.5ZM14 7.25V8.75V12C14 13.1046 13.1046 14 12 14H8.75H7.25H4C2.89543 14 2 13.1046 2 12V8.75V7.25V4C2 2.89543 2.89543 2 4 2H7.25H8.75H12C13.1046 2 14 2.89543 14 4V7.25ZM3.5 8.75V12C3.5 12.2761 3.72386 12.5 4 12.5H7.25V8.75H3.5ZM7.25 7.25H3.5V4C3.5 3.72386 3.72386 3.5 4 3.5H7.25V7.25ZM8.75 8.75V12.5H12C12.2761 12.5 12.5 12.2761 12.5 12V8.75H8.75Z"/>
</svg>
