<svg viewBox="0 0 20 20" xmlns="http://www.w3.org/2000/svg">
<path fill-rule="evenodd" clip-rule="evenodd" d="M12.5959 1.34375C13.0387 1.34375 13.4633 1.51996 13.776 1.83348L16.9509 5.01689C17.2625 5.32932 17.4375 5.75257 17.4375 6.19383V18.0104C17.4375 18.4707 17.0644 18.8438 16.6042 18.8438H3.27083C2.8106 18.8438 2.4375 18.4707 2.4375 18.0104V2.17708C2.4375 1.71685 2.8106 1.34375 3.27083 1.34375H12.5959Z"/>
<path d="M8.75 7.8C8.75 7.63431 8.88431 7.5 9.05 7.5H9.7C9.86569 7.5 10 7.63431 10 7.8V11.875C10 12.2202 9.72018 12.5 9.375 12.5V12.5C9.02982 12.5 8.75 12.2202 8.75 11.875V7.8Z"/>
<path d="M8.75 11.875C8.75 11.5298 9.02982 11.25 9.375 11.25H12.2C12.3657 11.25 12.5 11.3843 12.5 11.55V12.2C12.5 12.3657 12.3657 12.5 12.2 12.5H9.375C9.02982 12.5 8.75 12.2202 8.75 11.875V11.875Z"/>
</svg>
