<svg viewBox="0 0 16 16" xmlns="http://www.w3.org/2000/svg">
<path fill-rule="evenodd" clip-rule="evenodd" d="M2 2.5C2 1.94772 2.44772 1.5 3 1.5H10C12.2091 1.5 14 3.29086 14 5.5V13.5C14 14.0523 13.5523 14.5 13 14.5H6C3.79086 14.5 2 12.7091 2 10.5V2.5ZM5 6.4C5 6.17909 5.17909 6 5.4 6H8.6C8.82091 6 9 6.17909 9 6.4V6.94C9 7.16091 8.82091 7.34 8.6 7.34H5.4C5.17909 7.34 5 7.16091 5 6.94V6.4ZM5.4 9C5.17909 9 5 9.17909 5 9.4V9.94C5 10.1609 5.17909 10.34 5.4 10.34H10.6C10.8209 10.34 11 10.1609 11 9.94V9.4C11 9.17909 10.8209 9 10.6 9H5.4Z"/>
</svg>
