<svg viewBox="0 0 16 16" xmlns="http://www.w3.org/2000/svg">
<path fill-rule="evenodd" clip-rule="evenodd" d="M7.94072 8.75L6.50002 4.90813L5.05931 8.75H7.94072ZM8.44322 10.09L9.62267 13.2352C9.7526 13.5817 10.1388 13.7572 10.4853 13.6273C10.8317 13.4974 11.0073 13.1112 10.8774 12.7647L7.22099 3.01441C6.97117 2.34822 6.02886 2.34823 5.77904 3.01441L2.12268 12.7647C1.99275 13.1112 2.16829 13.4974 2.51476 13.6273C2.86123 13.7572 3.24743 13.5817 3.37736 13.2352L4.55681 10.09H8.44322ZM8.5 4.17C8.5 3.79997 8.79997 3.5 9.17 3.5H13.83C14.2 3.5 14.5 3.79997 14.5 4.17C14.5 4.54003 14.2 4.84 13.83 4.84H9.17C8.79997 4.84 8.5 4.54003 8.5 4.17ZM10.5 7.92C10.5 7.54997 10.8 7.25 11.17 7.25H13.83C14.2 7.25 14.5 7.54997 14.5 7.92C14.5 8.29003 14.2 8.59 13.83 8.59H11.17C10.8 8.59 10.5 8.29003 10.5 7.92ZM12.17 11C11.8 11 11.5 11.3 11.5 11.67C11.5 12.04 11.8 12.34 12.17 12.34H13.83C14.2 12.34 14.5 12.04 14.5 11.67C14.5 11.3 14.2 11 13.83 11H12.17Z"/>
</svg>
