<svg width="16" height="16" viewBox="0 0 16 16" xmlns="http://www.w3.org/2000/svg">
<rect x="1.5" y="1.5" width="13" height="13" rx="1"/>
<path fill-rule="evenodd" clip-rule="evenodd" d="M8.00163 4.87439C7.42663 4.87439 6.95996 5.34085 6.95996 5.91606C6.95996 6.49126 7.42663 6.95772 8.00163 6.95772C8.57663 6.95772 9.04329 6.49126 9.04329 5.91606C9.04329 5.34085 8.57663 4.87439 8.00163 4.87439ZM6.125 5.91626C6.125 4.88063 6.96458 4.04126 8 4.04126C9.03542 4.04126 9.875 4.88063 9.875 5.91626C9.875 6.95188 9.03542 7.79126 8 7.79126C6.96458 7.79126 6.125 6.95188 6.125 5.91626ZM6.88958 9.24954C6.13125 9.24954 5.5 9.24892 5.5 10.0412V10.7079H10.5V10.0412C10.5 9.24892 9.86875 9.24954 9.11042 9.24954H6.88958ZM4.66748 10.0413C4.66748 8.79855 5.66331 8.41626 6.8904 8.41626H9.11123C10.3383 8.41626 11.3341 8.79855 11.3341 10.0413V11.1663C11.3341 11.3733 11.1675 11.5413 10.9633 11.5413H5.03831C4.83415 11.5413 4.66748 11.3733 4.66748 11.1663V10.0413Z" fill="white"/>
</svg>
