<svg viewBox="0 0 16 16" xmlns="http://www.w3.org/2000/svg">
<path fill-rule="evenodd" clip-rule="evenodd" d="M10.6667 11.6667C10.8508 11.6667 11 11.8159 11 12V13.3334C11 13.5175 10.8508 13.6667 10.6667 13.6667H9.33333C9.14924 13.6667 9 13.5175 9 13.3334V12C9 11.8159 9.14924 11.6667 9.33333 11.6667H10.6667ZM6.66667 11.6667C6.85076 11.6667 7 11.8159 7 12V13.3334C7 13.5175 6.85076 13.6667 6.66667 13.6667H5.33333C5.14924 13.6667 5 13.5175 5 13.3334V12C5 11.8159 5.14924 11.6667 5.33333 11.6667H6.66667ZM9.33333 7.00004H10.6667C10.8508 7.00004 11 7.14928 11 7.33337V8.66671C11 8.8508 10.8508 9.00004 10.6667 9.00004H9.33333C9.14924 9.00004 9 8.8508 9 8.66671V7.33337C9 7.14928 9.14924 7.00004 9.33333 7.00004ZM5.33333 7.00004H6.66667C6.85076 7.00004 7 7.14928 7 7.33337V8.66671C7 8.8508 6.85076 9.00004 6.66667 9.00004H5.33333C5.14924 9.00004 5 8.8508 5 8.66671V7.33337C5 7.14928 5.14924 7.00004 5.33333 7.00004ZM10.6667 2.33337C10.8508 2.33337 11 2.48261 11 2.66671V4.00004C11 4.18414 10.8508 4.33337 10.6667 4.33337H9.33333C9.14924 4.33337 9 4.18414 9 4.00004V2.66671C9 2.48261 9.14924 2.33337 9.33333 2.33337H10.6667ZM6.66667 2.33337C6.85076 2.33337 7 2.48261 7 2.66671V4.00004C7 4.18414 6.85076 4.33337 6.66667 4.33337H5.33333C5.14924 4.33337 5 4.18414 5 4.00004V2.66671C5 2.48261 5.14924 2.33337 5.33333 2.33337H6.66667Z"/>
</svg>
