<svg viewBox="0 0 16 16" xmlns="http://www.w3.org/2000/svg">
<path fill-rule="evenodd" clip-rule="evenodd" d="M2.62508 11C2.44099 11 2.29175 11.1492 2.29175 11.3333V12C2.29175 12.1841 2.44099 12.3333 2.62508 12.3333H13.9584C14.1425 12.3333 14.2917 12.1841 14.2917 12V11.3333C14.2917 11.1492 14.1425 11 13.9584 11H2.62508ZM2.62508 7C2.44099 7 2.29175 7.14924 2.29175 7.33333V8C2.29175 8.18409 2.44099 8.33333 2.62508 8.33333H13.9584C14.1425 8.33333 14.2917 8.18409 14.2917 8V7.33333C14.2917 7.14924 14.1425 7 13.9584 7H2.62508ZM2.62508 3C2.44099 3 2.29175 3.14924 2.29175 3.33333V4C2.29175 4.18409 2.44099 4.33333 2.62508 4.33333H13.9584C14.1425 4.33333 14.2917 4.18409 14.2917 4V3.33333C14.2917 3.14924 14.1425 3 13.9584 3H2.62508Z"/>
</svg>
