<svg viewBox="0 0 12 12" xmlns="http://www.w3.org/2000/svg">
<path fill-rule="evenodd" clip-rule="evenodd" d="M0 0.784961C0 0.674504 0.0895431 0.584961 0.2 0.584961H1C1.11046 0.584961 1.2 0.674504 1.2 0.784961V10.3849H11.8C11.9105 10.3849 12 10.4745 12 10.5849V11.3849C12 11.4954 11.9105 11.5849 11.8 11.5849H1.2V11.585H0.2C0.089543 11.585 0 11.4954 0 11.385V11.3849V10.3849V0.784961ZM3.2 5.58496C3.08954 5.58496 3 5.6745 3 5.78496V8.38496C3 8.49542 3.08954 8.58496 3.2 8.58496H4C4.11046 8.58496 4.2 8.49542 4.2 8.38496V5.78496C4.2 5.6745 4.11046 5.58496 4 5.58496H3.2ZM6 1.78496C6 1.6745 6.08954 1.58496 6.2 1.58496H7C7.11046 1.58496 7.2 1.6745 7.2 1.78496V8.38496C7.2 8.49542 7.11046 8.58496 7 8.58496H6.2C6.08954 8.58496 6 8.49542 6 8.38496V1.78496ZM9.2 4.58496C9.08954 4.58496 9 4.6745 9 4.78496V8.38496C9 8.49542 9.08954 8.58496 9.2 8.58496H10C10.1105 8.58496 10.2 8.49542 10.2 8.38496V4.78496C10.2 4.6745 10.1105 4.58496 10 4.58496H9.2Z"/>
</svg>
