<svg viewBox="0 0 12 12" xmlns="http://www.w3.org/2000/svg">
<path d="M0 1.5C0 0.947715 0.447715 0.5 1 0.5H5.38197C5.76074 0.5 6.107 0.714002 6.27639 1.05279L6.72361 1.94721C6.893 2.286 7.23926 2.5 7.61803 2.5H9H11C11.5523 2.5 12 2.94772 12 3.5V10.5C12 11.0523 11.5523 11.5 11 11.5H1C0.447715 11.5 0 11.0523 0 10.5V1.5Z"/>
<path fill-rule="evenodd" clip-rule="evenodd" d="M5.63008 4C5.46439 4 5.33008 4.13431 5.33008 4.3V6.33008H3.3C3.13431 6.33008 3 6.46439 3 6.63008V7.37008C3 7.53576 3.13431 7.67008 3.3 7.67008H5.33008V9.7C5.33008 9.86569 5.46439 10 5.63008 10H6.37008C6.53576 10 6.67008 9.86569 6.67008 9.7V7.67008H8.7C8.86569 7.67008 9 7.53576 9 7.37008V6.63008C9 6.46439 8.86569 6.33008 8.7 6.33008H6.67008V4.3C6.67008 4.13431 6.53576 4 6.37008 4H5.63008Z" fill="white"/>
</svg>
