<svg viewBox="0 0 16 16" xmlns="http://www.w3.org/2000/svg">
<path fill-rule="evenodd" clip-rule="evenodd" d="M2.67 2.82996C2.29997 2.82996 2 3.12993 2 3.49996C2 3.86999 2.29997 4.16996 2.67 4.16996H3.33C3.70003 4.16996 4 3.86999 4 3.49996C4 3.12993 3.70003 2.82996 3.33 2.82996H2.67ZM5.67 2.82996C5.29997 2.82996 5 3.12993 5 3.49996C5 3.86999 5.29997 4.16996 5.67 4.16996H13.33C13.7 4.16996 14 3.86999 14 3.49996C14 3.12993 13.7 2.82996 13.33 2.82996H5.67ZM5 7.82991C5 7.45988 5.29997 7.15991 5.67 7.15991H13.33C13.7 7.15991 14 7.45988 14 7.82991C14 8.19994 13.7 8.49991 13.33 8.49991H5.67C5.29997 8.49991 5 8.19994 5 7.82991ZM2.67 7.15991C2.29997 7.15991 2 7.45988 2 7.82991C2 8.19994 2.29997 8.49991 2.67 8.49991H3.33C3.70003 8.49991 4 8.19994 4 7.82991C4 7.45988 3.70003 7.15991 3.33 7.15991H2.67ZM5 12.5C5 12.1299 5.29997 11.83 5.67 11.83H13.33C13.7 11.83 14 12.1299 14 12.5C14 12.87 13.7 13.17 13.33 13.17H5.67C5.29997 13.17 5 12.87 5 12.5ZM2.67 11.83C2.29997 11.83 2 12.1299 2 12.5C2 12.87 2.29997 13.17 2.67 13.17H3.33C3.70003 13.17 4 12.87 4 12.5C4 12.1299 3.70003 11.83 3.33 11.83H2.67Z"/>
</svg>
