<svg viewBox="0 0 16 16" xmlns="http://www.w3.org/2000/svg">
<path fill-rule="evenodd" clip-rule="evenodd" d="M13.7 12.9747C13.8657 12.9747 14 13.109 14 13.2747V13.8747C14 14.0403 13.8657 14.1747 13.7 14.1747H2.3C2.13431 14.1747 2 14.0403 2 13.8747V13.2747C2 13.109 2.13431 12.9747 2.3 12.9747H13.7ZM9.46125 2.1405L9.50052 2.17667L11.561 4.24802C11.7943 4.48252 11.7938 4.86156 11.5599 5.09544L11.3381 5.31692L11.3421 5.32099L4.88841 11.7747H2.6C2.28369 11.7747 2.02455 11.5299 2.00165 11.2194L2 11.1747V8.88624L8.2334 2.60432L8.22774 2.5987L8.65088 2.17555C8.87287 1.95357 9.22551 1.94189 9.46125 2.1405ZM7.3289 5.20232L3.2195 9.39234V9.39406L4.3805 10.5551L4.38232 10.5551L8.5298 6.40322L7.3289 5.20232ZM9.0611 3.43622L8.1695 4.34552L9.3782 5.55422L10.2749 4.65662L9.0611 3.43622Z"/>
</svg>
