<svg viewBox="0 0 16 16" xmlns="http://www.w3.org/2000/svg">
<path fill-rule="evenodd" clip-rule="evenodd" d="M5.3923 2.64483C5.45655 2.28042 5.80405 2.0371 6.16846 2.10136C6.53287 2.16561 6.7762 2.51311 6.71194 2.87752L6.33769 5.00003H10.957L11.3723 2.64483C11.4365 2.28042 11.784 2.0371 12.1484 2.10136C12.5129 2.16561 12.7562 2.51311 12.6919 2.87752L12.3177 5.00003H14.7301C15.1001 5.00003 15.4001 5.29999 15.4001 5.67003C15.4001 6.04006 15.1001 6.34003 14.7301 6.34003H12.0814L11.2597 11H13.3301C13.7001 11 14.0001 11.3 14.0001 11.67C14.0001 12.04 13.7001 12.34 13.3301 12.34H11.0234L10.6081 14.6952C10.5439 15.0596 10.1964 15.3029 9.83198 15.2387C9.46757 15.1744 9.22425 14.8269 9.2885 14.4625L9.66276 12.34H5.04345L4.62816 14.6952C4.56391 15.0596 4.21641 15.3029 3.852 15.2387C3.48759 15.1744 3.24427 14.8269 3.30852 14.4625L3.68278 12.34H1.2701C0.900067 12.34 0.600098 12.04 0.600098 11.67C0.600098 11.3 0.900067 11 1.2701 11H3.91906L4.74074 6.34003H2.6701C2.30007 6.34003 2.0001 6.04006 2.0001 5.67003C2.0001 5.29999 2.30007 5.00003 2.6701 5.00003H4.97701L5.3923 2.64483ZM9.89904 11L10.7207 6.34003H6.10141L5.27973 11H9.89904Z"/>
</svg>
