<svg viewBox="0 0 16 16" xmlns="http://www.w3.org/2000/svg">
<path fill-rule="evenodd" clip-rule="evenodd" d="M9.8 2C10.1314 2 10.4 2.26863 10.4 2.6L10.3997 3.1997L13.6154 3.2C13.7491 3.2 13.7976 3.21392 13.8465 3.24007C13.8954 3.26622 13.9338 3.30458 13.9599 3.35347C13.9861 3.40236 14 3.45086 14 3.58458V4.01542C14 4.14915 13.9861 4.19764 13.9599 4.24653C13.9338 4.29542 13.8954 4.33378 13.8465 4.35993C13.7976 4.38608 13.7491 4.4 13.6154 4.4L12.7997 4.3997L12.8 13.4C12.8 13.7314 12.5314 14 12.2 14H3.8C3.46863 14 3.2 13.7314 3.2 13.4L3.1997 4.3997L2.38458 4.4C2.25085 4.4 2.20236 4.38608 2.15347 4.35993C2.10458 4.33378 2.06622 4.29542 2.04007 4.24653C2.01392 4.19764 2 4.14915 2 4.01542V3.58458C2 3.45086 2.01392 3.40236 2.04007 3.35347C2.06622 3.30458 2.10458 3.26622 2.15347 3.24007C2.20236 3.21392 2.25085 3.2 2.38458 3.2L5.5997 3.1997L5.6 2.6C5.6 2.26863 5.86863 2 6.2 2H9.8ZM11.5997 4.3997H4.3997L4.4 12.8H11.6L11.5997 4.3997ZM7.1 6.2C7.26569 6.2 7.4 6.33431 7.4 6.5V10.7C7.4 10.8657 7.26569 11 7.1 11H6.5C6.33431 11 6.2 10.8657 6.2 10.7V6.5C6.2 6.33431 6.33431 6.2 6.5 6.2H7.1ZM9.5 6.2C9.66569 6.2 9.8 6.33431 9.8 6.5V10.7C9.8 10.8657 9.66569 11 9.5 11H8.9C8.73431 11 8.6 10.8657 8.6 10.7V6.5C8.6 6.33431 8.73431 6.2 8.9 6.2H9.5Z"/>
</svg>
