<svg width="16" height="16" viewBox="0 0 16 16" xmlns="http://www.w3.org/2000/svg">
<path d="M13.75 1.75H2.25C1.97344 1.75 1.75 1.97344 1.75 2.25V13.75C1.75 14.0266 1.97344 14.25 2.25 14.25H13.75C14.0266 14.25 14.25 14.0266 14.25 13.75V2.25C14.25 1.97344 14.0266 1.75 13.75 1.75ZM13.125 13.125H2.875V2.875H13.125V13.125ZM4.7625 8.1875H5.55469C5.6125 8.1875 5.66094 8.14062 5.66094 8.08125V6.84844C5.66094 6.54062 5.90937 6.29219 6.21562 6.29219H9.42969V7.12656C9.42969 7.21563 9.53125 7.26406 9.6 7.20937L11.3047 5.87031C11.3594 5.82812 11.3594 5.74531 11.3047 5.70312L9.6 4.36406C9.53125 4.30937 9.42969 4.35938 9.42969 4.44688V5.28125H6.21406C5.35313 5.28125 4.65625 5.98125 4.65625 6.84531V8.07812C4.65625 8.14062 4.70312 8.1875 4.7625 8.1875ZM4.69688 10.2953L6.40156 11.6344C6.47031 11.6891 6.57188 11.6391 6.57188 11.5516V10.7172H9.78594C10.6469 10.7172 11.3438 10.0172 11.3438 9.15312V7.92031C11.3438 7.8625 11.2969 7.81406 11.2375 7.81406H10.4453C10.3875 7.81406 10.3391 7.86094 10.3391 7.92031V9.15312C10.3391 9.46094 10.0906 9.70938 9.78438 9.70938H6.57188V8.875C6.57188 8.78594 6.47031 8.7375 6.40156 8.79219L4.69688 10.1313C4.64219 10.1703 4.64219 10.2531 4.69688 10.2953Z"/>
</svg>
