<svg viewBox="0 0 16 16" xmlns="http://www.w3.org/2000/svg">
<path fill-rule="evenodd" clip-rule="evenodd" d="M5.35554 3.19692C5.84062 2.71184 6.67001 3.0554 6.67001 3.74139V12.87C6.67001 13.0357 6.5357 13.17 6.37001 13.17H5.63001C5.46433 13.17 5.33001 13.0357 5.33001 12.87V5.11749L4.21215 6.23536C4.09499 6.35252 3.90504 6.35252 3.78788 6.23536L3.26462 5.7121C3.14746 5.59495 3.14747 5.405 3.26462 5.28784L5.35554 3.19692Z"/>
<path fill-rule="evenodd" clip-rule="evenodd" d="M10.6445 12.8031C10.1594 13.2882 9.32999 12.9446 9.32999 12.2586V3.13003C9.32999 2.96434 9.4643 2.83003 9.62999 2.83003H10.37C10.5357 2.83003 10.67 2.96434 10.67 3.13003V10.8825L11.7879 9.76464C11.905 9.64748 12.095 9.64748 12.2121 9.76464L12.7354 10.2879C12.8525 10.4051 12.8525 10.595 12.7354 10.7122L10.6445 12.8031Z"/>
</svg>
