<svg viewBox="0 0 16 16" xmlns="http://www.w3.org/2000/svg">
<path fill-rule="evenodd" clip-rule="evenodd" d="M13.6667 2.33337C14.0349 2.33337 14.3333 2.63185 14.3333 3.00004L14.334 5.80177C14.3384 5.84595 14.3382 5.89024 14.3335 5.93392L14.3333 6.00004C14.3333 6.11248 14.2777 6.21191 14.1924 6.27229C14.1465 6.32871 14.09 6.37826 14.0238 6.41776L10.3333 8.62037V13.3334C10.3333 13.5175 10.1841 13.6667 10 13.6667H9.33333C9.14924 13.6667 9 13.5175 9 13.3334V8.33337C9 8.23242 9.02244 8.13671 9.0626 8.05096C9.11354 7.92823 9.20302 7.82052 9.32564 7.74732L13 5.55371V3.66671H3.33333V5.57737L6.89797 7.70793C7.15215 7.80196 7.33333 8.04651 7.33333 8.33337V12C7.33333 12.1841 7.18409 12.3334 7 12.3334H6.33333C6.14924 12.3334 6 12.1841 6 12V8.64371L2.31588 6.44109C2.23321 6.39167 2.16565 6.32653 2.11476 6.25175C2.04452 6.19074 2 6.10059 2 6.00004V3.00004C2 2.63185 2.29848 2.33337 2.66667 2.33337H13.6667Z"/>
</svg>
