<svg width="16" height="16" viewBox="0 0 16 16" xmlns="http://www.w3.org/2000/svg">
<path d="M5.66669 2H2.66669C2.1144 2 1.66669 2.44772 1.66669 3V13C1.66669 13.5523 2.1144 14 2.66669 14H5.66669C6.21897 14 6.66669 13.5523 6.66669 13V3C6.66669 2.44772 6.21897 2 5.66669 2Z"/>
<path fill-rule="evenodd" clip-rule="evenodd" d="M10 2H13.3333C13.8856 2 14.3333 2.44772 14.3333 3V6C14.3333 6.55228 13.8856 7 13.3333 7H10C9.44772 7 9 6.55228 9 6V3C9 2.44772 9.44772 2 10 2Z"/>
<path fill-rule="evenodd" clip-rule="evenodd" d="M10 9H13.3333C13.8856 9 14.3333 9.44772 14.3333 10V13C14.3333 13.5523 13.8856 14 13.3333 14H10C9.44772 14 9 13.5523 9 13V10C9 9.44772 9.44772 9 10 9Z"/>
</svg>
