<svg viewBox="0 0 16 16" xmlns="http://www.w3.org/2000/svg">
<path fill-rule="evenodd" clip-rule="evenodd" d="M7 10.5C8.933 10.5 10.5 8.933 10.5 7C10.5 5.067 8.933 3.5 7 3.5C5.067 3.5 3.5 5.067 3.5 7C3.5 8.933 5.067 10.5 7 10.5ZM7 12C9.76142 12 12 9.76142 12 7C12 4.23858 9.76142 2 7 2C4.23858 2 2 4.23858 2 7C2 9.76142 4.23858 12 7 12Z"/>
<path d="M10.9999 9.93934L13.5338 12.4732C13.729 12.6685 13.729 12.9851 13.5338 13.1803L13.1802 13.5339C12.9849 13.7291 12.6684 13.7291 12.4731 13.5339L9.93923 11L10.9999 9.93934Z"/>
</svg>
