<svg viewBox="0 0 16 16" xmlns="http://www.w3.org/2000/svg">
<path fill-rule="evenodd" clip-rule="evenodd" d="M2 3C2 2.44772 2.44772 2 3 2H13C13.5523 2 14 2.44772 14 3V11C14 11.5523 13.5523 12 13 12H3C2.44772 12 2 11.5523 2 11V3ZM4.5 13.5C4.5 13.2239 4.72386 13 5 13H11C11.2761 13 11.5 13.2239 11.5 13.5C11.5 13.7761 11.2761 14 11 14H5C4.72386 14 4.5 13.7761 4.5 13.5ZM5 5.7C5 5.58954 5.08954 5.5 5.2 5.5H8.8C8.91046 5.5 9 5.58954 9 5.7V6.3C9 6.41046 8.91046 6.5 8.8 6.5H5.2C5.08954 6.5 5 6.41046 5 6.3V5.7ZM5 7.7C5 7.58954 5.08954 7.5 5.2 7.5H10.8C10.9105 7.5 11 7.58954 11 7.7V8.3C11 8.41046 10.9105 8.5 10.8 8.5H5.2C5.08954 8.5 5 8.41046 5 8.3V7.7Z"/>
</svg>
