<svg viewBox="0 0 16 16" xmlns="http://www.w3.org/2000/svg">
<path fill-rule="evenodd" clip-rule="evenodd" d="M5.99992 2C6.18401 2 6.33325 2.14924 6.33325 2.33333V3H9.66659V2.33333C9.66659 2.14924 9.81582 2 9.99992 2H10.6666C10.8507 2 10.9999 2.14924 10.9999 2.33333V3H12.9999C13.3681 3 13.6666 3.31506 13.6666 3.7037V12.963C13.6666 13.3516 13.3681 13.6667 12.9999 13.6667H2.99992C2.63173 13.6667 2.33325 13.3516 2.33325 12.963V3.7037C2.33325 3.31506 2.63173 3 2.99992 3H4.99959L4.99992 2.33333C4.99992 2.14924 5.14916 2 5.33325 2H5.99992ZM12.3333 8H3.66659V12.3333H12.3333V8ZM4.99959 4.33333H3.66659V6.66667H12.3333V4.33333H10.9999V5C10.9999 5.18409 10.8507 5.33333 10.6666 5.33333H9.99992C9.81582 5.33333 9.66659 5.18409 9.66659 5V4.33333H6.33325V5C6.33325 5.18409 6.18401 5.33333 5.99992 5.33333H5.33325C5.14916 5.33333 4.99992 5.18409 4.99992 5L4.99959 4.33333Z"/>
</svg>
