<svg viewBox="0 0 16 16" xmlns="http://www.w3.org/2000/svg">
<path fill-rule="evenodd" clip-rule="evenodd" d="M15 8C15 4.13401 11.866 1 8 1C4.13401 1 1 4.13401 1 8V14.3333C1 14.7015 1.29848 15 1.66667 15H8C11.866 15 15 11.866 15 8ZM2.60327 7.81042C2.70314 4.91588 5.08112 2.6 8 2.6C10.9823 2.6 13.4 5.01766 13.4 8L13.3967 8.18958C13.2969 11.0841 10.9189 13.4 8 13.4H2.6V8L2.60327 7.81042ZM9.38909 5.64645C9.58435 5.45118 9.90093 5.45118 10.0962 5.64645L10.4497 6C10.645 6.19526 10.645 6.51184 10.4497 6.70711L8.85876 8.2981L10.4497 9.88909C10.645 10.0843 10.645 10.4009 10.4497 10.5962L10.0962 10.9497C9.90093 11.145 9.58435 11.145 9.38909 10.9497L7.7981 9.35876L6.20711 10.9497C6.01184 11.145 5.69526 11.145 5.5 10.9497L5.14645 10.5962C4.95118 10.4009 4.95118 10.0843 5.14645 9.88909L6.73744 8.2981L5.14645 6.70711C4.95118 6.51184 4.95118 6.19526 5.14645 6L5.5 5.64645C5.69526 5.45118 6.01184 5.45118 6.20711 5.64645L7.7981 7.23744L9.38909 5.64645Z"/>
</svg>
