<svg viewBox="0 0 16 16" xmlns="http://www.w3.org/2000/svg">
<path fill-rule="evenodd" clip-rule="evenodd" d="M10.6869 2.21781C10.4681 1.99834 10.1708 1.875 9.86089 1.875H3.33333C3.01117 1.875 2.75 2.13617 2.75 2.45833V13.5417C2.75 13.8638 3.01117 14.125 3.33333 14.125H12.6667C12.9888 14.125 13.25 13.8638 13.25 13.5417V5.27005C13.25 4.96117 13.1275 4.6649 12.9094 4.4462L10.6869 2.21781ZM7 6.5625C7 6.25184 7.25184 6 7.5625 6C7.87316 6 8.125 6.25184 8.125 6.5625V8.875H9.4375C9.74816 8.875 10 9.12684 10 9.4375C10 9.74816 9.74816 10 9.4375 10H7.5625C7.25184 10 7 9.74816 7 9.4375V6.5625Z"/>
</svg>
