<svg viewBox="0 0 16 16" xmlns="http://www.w3.org/2000/svg">
<path fill-rule="evenodd" clip-rule="evenodd" d="M13.66 8C13.66 4.87407 11.1259 2.34 8 2.34C4.87407 2.34 2.34 4.87407 2.34 8C2.34 11.1259 4.87407 13.66 8 13.66C11.1259 13.66 13.66 11.1259 13.66 8ZM15 8C15 4.13401 11.866 1 8 1C4.13401 1 1 4.13401 1 8C1 11.866 4.13401 15 8 15C11.866 15 15 11.866 15 8ZM10.4429 5.728L10.8259 6.04939C11.0376 6.22679 11.0651 6.54216 10.8876 6.7537L10.8875 6.75372L7.88474 10.3302L7.53775 10.7478C7.36125 10.9601 7.04601 10.9892 6.83363 10.8127L6.82584 10.8061L6.13155 10.2047L6.07291 10.1555L6.07368 10.1546L4.83678 9.0831C4.62805 8.9023 4.60542 8.58653 4.78622 8.37781L4.79257 8.37061L5.12806 7.99802C5.30992 7.79605 5.61981 7.77633 5.8258 7.95363L7.04238 9.00074L9.73839 5.78954C9.91602 5.57818 10.2313 5.55063 10.4429 5.728Z"/>
</svg>
