<svg viewBox="0 0 16 16" xmlns="http://www.w3.org/2000/svg">
<path d="M13.5625 11.4375H12.464C12.389 11.4375 12.3187 11.4704 12.2719 11.5282C12.1625 11.661 12.0453 11.7891 11.9219 11.911C11.4125 12.4188 10.8203 12.8188 10.1609 13.0969C9.47967 13.3844 8.75467 13.5313 8.00623 13.5313C7.25779 13.5313 6.53279 13.3844 5.85154 13.0969C5.19217 12.8188 4.59998 12.4188 4.09061 11.911C3.58123 11.4032 3.18279 10.811 2.90311 10.1532C2.61404 9.47192 2.46873 8.74848 2.46873 8.00005C2.46873 7.25161 2.61561 6.52817 2.90311 5.84692C3.18123 5.18911 3.58123 4.59692 4.09061 4.08911C4.59998 3.5813 5.19217 3.1813 5.85154 2.90317C6.53279 2.61567 7.25779 2.4688 8.00623 2.4688C8.75467 2.4688 9.47967 2.61411 10.1609 2.90317C10.8203 3.1813 11.4125 3.5813 11.9219 4.08911C12.0453 4.21255 12.1609 4.34067 12.2719 4.47192C12.3187 4.52973 12.3906 4.56255 12.464 4.56255H13.5625C13.6609 4.56255 13.7219 4.45317 13.6672 4.37036C12.4687 2.50786 10.3719 1.27505 7.98904 1.28127C4.24529 1.29067 1.24373 4.32974 1.28123 8.0688C1.31873 11.7485 4.31561 14.7188 8.00623 14.7188C10.3828 14.7188 12.4703 13.4875 13.6672 11.6297C13.7203 11.5469 13.6609 11.4375 13.5625 11.4375ZM14.9515 7.90161L12.7344 6.15161C12.6515 6.08598 12.5312 6.14536 12.5312 6.25005V7.43755H7.62498C7.55623 7.43755 7.49998 7.4938 7.49998 7.56255V8.43755C7.49998 8.5063 7.55623 8.56255 7.62498 8.56255H12.5312V9.75005C12.5312 9.85473 12.6531 9.91411 12.7344 9.84848L14.9515 8.09848C15.0156 8.04848 15.0156 7.95161 14.9515 7.90161Z"/>
</svg>
