<svg viewBox="0 0 16 16" xmlns="http://www.w3.org/2000/svg">
<path fill-rule="evenodd" clip-rule="evenodd" d="M3.34002 2.08654L14.6216 13.3681C14.737 13.4835 14.737 13.6706 14.6216 13.7859L14.2038 14.2038C14.0884 14.3192 13.9013 14.3192 13.7859 14.2038L2.50435 2.92221C2.38897 2.80683 2.38897 2.61975 2.50435 2.50437L2.92218 2.08654C3.03757 1.97115 3.22464 1.97115 3.34002 2.08654ZM3.77126 5.44134L4.54373 6.2139C4.07617 6.72823 3.62238 7.3468 3.18182 8.07392C4.81312 10.706 6.57834 11.9225 8.49101 11.9225C9.00037 11.9225 9.49968 11.8363 9.98917 11.66L10.8777 12.5484C10.1187 12.919 9.32293 13.1043 8.49038 13.1043C5.98818 13.1043 3.82473 11.4305 2 8.0827C2.55281 7.0399 3.14323 6.15945 3.77126 5.44134ZM8.49034 3.05915C11.0417 3.05915 13.2116 4.73376 15 8.08296C14.4339 9.1143 13.8362 9.98677 13.2071 10.7004L12.4344 9.92759C12.9056 9.41392 13.3668 8.79749 13.8181 8.0742C12.2181 5.45208 10.4506 4.24097 8.49097 4.24097C7.98023 4.24097 7.48294 4.32326 6.99864 4.4914L6.10603 3.59912C6.8591 3.23914 7.65387 3.05915 8.49034 3.05915ZM6.15046 7.82171L8.76025 10.4315C8.67476 10.4409 8.58791 10.4457 8.49993 10.4457C7.19453 10.4457 6.13629 9.38743 6.13629 8.08203C6.13629 7.99405 6.1411 7.90719 6.15046 7.82171ZM8.50007 5.71882C9.80547 5.71882 10.8637 6.77706 10.8637 8.08246C10.8637 8.17044 10.8589 8.25729 10.8495 8.34278L8.23975 5.73299C8.32523 5.72363 8.41209 5.71882 8.50007 5.71882Z"/>
</svg>
