<svg  xmlns="http://www.w3.org/2000/svg">
<path fill-rule="evenodd" clip-rule="evenodd" d="M9 1.66602C7.34333 1.66602 6 3.00902 6 4.66602C6 6.32302 7.34333 7.66602 9 7.66602C10.6567 7.66602 12 6.32302 12 4.66602C12 3.00902 10.6567 1.66602 9 1.66602ZM7.22464 8.66602C5.2613 8.66602 3.66797 9.27768 3.66797 11.266V13.066C3.66797 13.3973 3.93464 13.666 4.2613 13.666H13.7413C14.068 13.666 14.3346 13.3973 14.3346 13.066V11.266C14.3346 9.27768 12.7413 8.66602 10.778 8.66602H7.22464ZM5.5 4.66605C5.5 3.39505 6.17745 2.28242 7.19083 1.66931C5.5997 1.74304 4.33203 3.05639 4.33203 4.66605C4.33203 6.27571 5.5997 7.58905 7.19083 7.66278C6.17745 7.04967 5.5 5.93704 5.5 4.66605ZM2 11.266C2 9.62726 3.08236 8.92366 4.56216 8.72692C4.52267 8.7492 4.48377 8.77228 4.44547 8.79616C3.64519 9.29524 3.16797 10.1116 3.16797 11.266V13.066C3.16797 13.2866 3.23299 13.493 3.34521 13.666H2.59333C2.26667 13.666 2 13.3974 2 13.066V11.266Z" />
</svg>
