<svg viewBox="0 0 16 16" xmlns="http://www.w3.org/2000/svg">
<path fill-rule="evenodd" clip-rule="evenodd" d="M3.75 10.5003C3.98012 10.5003 4.16667 10.6869 4.16667 10.917V12.167H11.8333V10.917C11.8333 10.6869 12.0199 10.5003 12.25 10.5003H13.0833C13.3135 10.5003 13.5 10.6869 13.5 10.917V13.0003C13.5 13.4606 13.1269 13.8337 12.6667 13.8337H3.33333C2.8731 13.8337 2.5 13.4606 2.5 13.0003V10.917C2.5 10.6869 2.68655 10.5003 2.91667 10.5003H3.75ZM8.39578 9.57467L11.5206 6.44988C11.6833 6.28716 11.6833 6.02334 11.5206 5.86062L10.9313 5.27137C10.7686 5.10865 10.5048 5.10865 10.3421 5.27137L8.83325 6.78007L8.83333 2.58366C8.83333 2.35354 8.64679 2.16699 8.41667 2.16699H7.58333C7.35321 2.16699 7.16667 2.35354 7.16667 2.58366L7.16624 6.57795L5.86024 5.27137C5.69753 5.10865 5.43371 5.10865 5.27099 5.27137L4.68173 5.86062C4.51902 6.02334 4.51902 6.28716 4.68173 6.44988L7.80652 9.57467C7.96924 9.73739 8.23306 9.73739 8.39578 9.57467Z"/>
</svg>
