<?xml version="1.0" standalone="no"?><!DOCTYPE svg PUBLIC "-//W3C//DTD SVG 1.1//EN" "http://www.w3.org/Graphics/SVG/1.1/DTD/svg11.dtd"><svg class="icon" width="200px" height="200.00px" viewBox="0 0 1024 1024" version="1.1" xmlns="http://www.w3.org/2000/svg"><path d="M767.7 480.9H207.1l217.7-217.7c12.3-12.3 12.3-32.4 0-44.7l-0.7-0.7c-12.3-12.3-32.4-12.3-44.7 0.1L107 490.3c-12.3 12.3-12.3 32.4 0 44.7l0.6 0.7c0.1 0 0.2 0.1 0.2 0.1l271.1 271.1c12.5 12.5 32.9 12.5 45.4 0s12.5-32.9 0-45.4L206.7 543.9h561c17.3 0 31.5-14.2 31.5-31.5s-14.2-31.5-31.5-31.5z"  /><path d="M864.1 512.6a31.8 31.7 0 1 0 63.6 0 31.8 31.7 0 1 0-63.6 0Z"  /></svg>