<svg viewBox="0 0 16 16" xmlns="http://www.w3.org/2000/svg">
<path d="M9.56863 2.65455H12.9777C13.1419 2.65455 13.3459 2.80948 13.3459 3.09091V6.36364C13.3459 6.64507 13.1419 6.8 12.9777 6.8H9.56863C9.40444 6.8 9.20044 6.64507 9.20044 6.36364V3.09091C9.20044 2.80948 9.40444 2.65455 9.56863 2.65455Z" stroke="#4E5969" stroke-width="1.30909"/>
<path d="M9.56863 9.19996H12.9777C13.1419 9.19996 13.3459 9.35489 13.3459 9.63632V12.909C13.3459 13.1905 13.1419 13.3454 12.9777 13.3454H9.56863C9.40444 13.3454 9.20044 13.1905 9.20044 12.909V9.63632C9.20044 9.35489 9.40444 9.19996 9.56863 9.19996Z" stroke="#4E5969" stroke-width="1.30909"/>
<path d="M3.02273 9.19996H6.43182C6.59601 9.19996 6.8 9.35489 6.8 9.63632V12.909C6.8 13.1905 6.59601 13.3454 6.43182 13.3454H3.02273C2.85854 13.3454 2.65455 13.1905 2.65455 12.909V9.63632C2.65455 9.35489 2.85854 9.19996 3.02273 9.19996Z" stroke="#4E5969" stroke-width="1.30909"/>
<path d="M3.02273 2.65455H6.43182C6.59601 2.65455 6.8 2.80948 6.8 3.09091V6.36364C6.8 6.64507 6.59601 6.8 6.43182 6.8H3.02273C2.85854 6.8 2.65455 6.64507 2.65455 6.36364V3.09091C2.65455 2.80948 2.85854 2.65455 3.02273 2.65455Z" stroke="#4E5969" stroke-width="1.30909"/>
</svg>
