<svg viewBox="0 0 20 20" xmlns="http://www.w3.org/2000/svg">
<path fill-rule="evenodd" clip-rule="evenodd" d="M12.0832 16.6666C12.3133 16.6666 12.4998 16.8532 12.4998 17.0833V17.9166C12.4998 18.1467 12.3133 18.3333 12.0832 18.3333H7.9165C7.68639 18.3333 7.49984 18.1467 7.49984 17.9166V17.0833C7.49984 16.8532 7.68639 16.6666 7.9165 16.6666H12.0832ZM11.2498 1.25C11.48 1.25 11.6665 1.43655 11.6665 1.66667L11.6668 2.30021C14.542 3.06425 16.6665 5.75854 16.6665 8.96504V13.75H17.9165C18.1466 13.75 18.3332 13.9365 18.3332 14.1666V15C18.3332 15.2301 18.1466 15.4166 17.9165 15.4166H2.08317C1.85305 15.4166 1.6665 15.2301 1.6665 15V14.1666C1.6665 13.9365 1.85305 13.75 2.08317 13.75H3.33317V8.96504C3.33317 5.75838 5.45786 3.06399 8.33332 2.3001L8.33317 1.66667C8.33317 1.43655 8.51972 1.25 8.74984 1.25H11.2498Z"/>
</svg>
