<?xml version="1.0" standalone="no"?><!DOCTYPE svg PUBLIC "-//W3C//DTD SVG 1.1//EN" "http://www.w3.org/Graphics/SVG/1.1/DTD/svg11.dtd"><svg class="icon" viewBox="0 0 1024 1024" version="1.1" xmlns="http://www.w3.org/2000/svg"><path d="M563.2 986.763636H93.090909c-51.2 0-93.090909-41.890909-93.090909-93.090909V130.327273c0-51.2 41.890909-93.090909 93.090909-93.090909h470.109091c27.927273 0 46.545455 18.618182 46.545455 46.545454s-18.618182 46.545455-46.545455 46.545455H93.090909v768h470.109091c27.927273 0 46.545455 18.618182 46.545455 46.545454 0 23.272727-18.618182 41.890909-46.545455 41.890909zM730.763636 758.690909c-18.618182-18.618182-18.618182-46.545455 0-65.163636l176.872728-176.872728L698.181818 297.890909l32.581818-32.581818c18.618182-18.618182 46.545455-18.618182 65.163637 0l214.109091 214.109091c18.618182 18.618182 18.618182 46.545455 0 65.163636l-214.109091 214.109091c-13.963636 18.618182-46.545455 18.618182-65.163637 0z"  /><path d="M935.563636 558.545455H404.945455c-27.927273 0-46.545455-18.618182-46.545455-46.545455s18.618182-46.545455 46.545455-46.545455h530.618181v93.09091z" /></svg>