<svg viewBox="0 0 24 24" xmlns="http://www.w3.org/2000/svg">
<path fill-rule="evenodd" clip-rule="evenodd" d="M12.1271 8.45776C12.1518 8.47866 12.1747 8.50158 12.1956 8.52627L15.5212 12.4565C15.7293 12.7025 15.6987 13.0705 15.4527 13.2786C15.3474 13.3678 15.2139 13.4167 15.0759 13.4167H12.7797V19C12.7797 19.2301 12.5931 19.4167 12.363 19.4167H11.1507C10.9206 19.4167 10.7341 19.2301 10.7341 19V13.4167H8.42472C8.10256 13.4167 7.84139 13.1555 7.84139 12.8333C7.84139 12.6954 7.89029 12.5619 7.97941 12.4565L11.305 8.52627C11.5131 8.28034 11.8812 8.24966 12.1271 8.45776ZM16 5C16.2301 5 16.4167 5.22386 16.4167 5.5V6.5C16.4167 6.77614 16.2301 7 16 7H7.41667C7.18655 7 7 6.77614 7 6.5V5.5C7 5.22386 7.18655 5 7.41667 5H16Z"/>
</svg>
