<?xml version="1.0" standalone="no"?><!DOCTYPE svg PUBLIC "-//W3C//DTD SVG 1.1//EN" "http://www.w3.org/Graphics/SVG/1.1/DTD/svg11.dtd"><svg class="icon" width="200px" height="200.00px" viewBox="0 0 1024 1024" version="1.1" xmlns="http://www.w3.org/2000/svg"><path fill="#333333" d="M331.995429 690.505143c123.867429 123.849143 274.724571 219.428571 397.714285 219.428571 55.296 0 103.716571-19.291429 142.72-62.153143 22.710857-25.289143 36.864-54.857143 36.864-83.986285 0-21.430857-8.155429-42.002286-28.708571-56.576l-131.163429-93.44c-20.132571-13.714286-36.845714-20.571429-52.278857-20.571429-19.712 0-36.864 11.154286-56.576 30.427429l-30.427428 30.006857a23.094857 23.094857 0 0 1-16.274286 6.857143c-6.857143 0-12.873143-2.56-17.572572-4.717715-26.148571-14.134857-71.570286-53.138286-114.011428-95.140571-42.002286-42.002286-81.005714-87.424-94.72-113.993143a36.406857 36.406857 0 0 1-4.699429-17.152c0-5.558857 1.700571-11.154286 6.418286-15.853714l29.988571-31.268572c19.309714-19.730286 30.445714-36.882286 30.445715-56.594285 0-15.414857-6.857143-32.128-20.992-52.278857l-92.16-129.865143c-14.994286-20.571429-35.986286-29.568-59.136-29.568-28.288 0-57.856 12.854857-82.706286 37.302857-41.581714 39.862857-60.013714 89.124571-60.013714 143.542857 0 123.008 93.860571 272.164571 217.289143 395.593143z" /></svg>