<svg  xmlns="http://www.w3.org/2000/svg">
  <path fill-rule="evenodd" clip-rule="evenodd"
        d="M5.94096 6.74988L4.50026 2.90801L3.05956 6.74988H5.94096ZM6.44346 8.08988L7.62292 11.2351C7.75285 11.5816 8.13904 11.7571 8.48551 11.6272C8.83198 11.4973 9.00753 11.1111 8.8776 10.7646L5.22123 1.01428C4.97141 0.3481 4.0291 0.348107 3.77929 1.01428L0.122919 10.7646C-0.00700726 11.1111 0.168536 11.4973 0.515007 11.6272C0.861478 11.7571 1.24767 11.5816 1.3776 11.2351L2.55706 8.08988H6.44346ZM6.50024 2.16988C6.50024 1.79985 6.80021 1.49988 7.17024 1.49988H11.8302C12.2003 1.49988 12.5002 1.79985 12.5002 2.16988C12.5002 2.53991 12.2003 2.83988 11.8302 2.83988H7.17024C6.80021 2.83988 6.50024 2.53991 6.50024 2.16988ZM8.50024 5.91988C8.50024 5.54985 8.80021 5.24988 9.17024 5.24988H11.8302C12.2003 5.24988 12.5002 5.54985 12.5002 5.91988C12.5002 6.28991 12.2003 6.58988 11.8302 6.58988H9.17024C8.80021 6.58988 8.50024 6.28991 8.50024 5.91988ZM10.1702 8.99988C9.80021 8.99988 9.50024 9.29985 9.50024 9.66988C9.50024 10.0399 9.80021 10.3399 10.1702 10.3399H11.8302C12.2003 10.3399 12.5002 10.0399 12.5002 9.66988C12.5002 9.29985 12.2003 8.99988 11.8302 8.99988H10.1702Z"
        />
</svg>
