<svg viewBox="0 0 8 9"  xmlns="http://www.w3.org/2000/svg">
<path fill-rule="evenodd" clip-rule="evenodd" d="M6.86243 8.49083C7.01864 8.64704 7.27191 8.64704 7.42812 8.49083L7.85238 8.06657C8.00859 7.91036 8.00859 7.65709 7.85238 7.50088L5.0948 4.7433L7.85252 1.98559C8.00873 1.82938 8.00873 1.57611 7.85252 1.4199L7.42825 0.995636C7.27204 0.839427 7.01878 0.839426 6.86257 0.995636L4.10485 3.75335L1.347 0.995498C1.19079 0.839289 0.937523 0.839289 0.781313 0.995498L0.357049 1.41976C0.200839 1.57597 0.200839 1.82924 0.357048 1.98545L3.1149 4.7433L0.357187 7.50102C0.200977 7.65723 0.200977 7.91049 0.357186 8.0667L0.781451 8.49097C0.937661 8.64718 1.19093 8.64718 1.34714 8.49097L4.10485 5.73325L6.86243 8.49083Z" fill="#C9CDD4"/>
</svg>
