<svg  xmlns="http://www.w3.org/2000/svg">
  <path fill-rule="evenodd" clip-rule="evenodd" d="M6.0026 1.99902C5.0826 1.99902 4.33594 2.74536 4.33594 3.66569C4.33594 4.58602 5.0826 5.33236 6.0026 5.33236C6.9226 5.33236 7.66927 4.58602 7.66927 3.66569C7.66927 2.74536 6.9226 1.99902 6.0026 1.99902ZM3 3.66602C3 2.00902 4.34333 0.666016 6 0.666016C7.65667 0.666016 9 2.00902 9 3.66602C9 5.32302 7.65667 6.66602 6 6.66602C4.34333 6.66602 3 5.32302 3 3.66602ZM4.22333 8.99927C3.01 8.99927 2 8.99827 2 10.2659V11.3326H10V10.2659C10 8.99827 8.99 8.99927 7.77667 8.99927H4.22333ZM0.667969 10.266C0.667969 8.27768 2.2613 7.66602 4.22464 7.66602H7.77797C9.7413 7.66602 11.3346 8.27768 11.3346 10.266V12.066C11.3346 12.3973 11.068 12.666 10.7413 12.666H1.2613C0.934635 12.666 0.667969 12.3973 0.667969 12.066V10.266Z" />
</svg>
