<svg    xmlns="http://www.w3.org/2000/svg">
  <path fill-rule="evenodd" clip-rule="evenodd" d="M12.16 6.5C12.16 9.34979 9.84979 11.66 7 11.66C4.15021 11.66 1.84 9.34979 1.84 6.5C1.84 3.65021 4.15021 1.34 7 1.34C9.84979 1.34 12.16 3.65021 12.16 6.5ZM13.5 6.5C13.5 10.0899 10.5899 13 7 13C3.41015 13 0.5 10.0899 0.5 6.5C0.5 2.91015 3.41015 0 7 0C10.5899 0 13.5 2.91015 13.5 6.5ZM5.47384 5.52619C5.21219 5.26454 4.78797 5.26454 4.52632 5.52619C4.26467 5.78785 4.26467 6.21207 4.52632 6.47372L6.45561 8.40301C6.75631 8.70371 7.24385 8.70371 7.54455 8.40301L9.47384 6.47372C9.73549 6.21207 9.73549 5.78785 9.47384 5.52619C9.21219 5.26454 8.78797 5.26454 8.52632 5.52619L7.00008 7.05243L5.47384 5.52619Z" />
</svg>
