<svg  viewBox="0 0 12 12"  xmlns="http://www.w3.org/2000/svg">
  <path fill-rule="evenodd" clip-rule="evenodd" d="M3.99967 0C4.18377 0 4.33301 0.149238 4.33301 0.333333V1H7.66634V0.333333C7.66634 0.149238 7.81558 0 7.99967 0H8.66634C8.85044 0 8.99967 0.149238 8.99967 0.333333V1H10.9997C11.3679 1 11.6663 1.31506 11.6663 1.7037V10.963C11.6663 11.3516 11.3679 11.6667 10.9997 11.6667H0.999674C0.631485 11.6667 0.333008 11.3516 0.333008 10.963V1.7037C0.333008 1.31506 0.631485 1 0.999674 1H2.99934L2.99967 0.333333C2.99967 0.149238 3.14891 0 3.33301 0H3.99967ZM10.333 6H1.66634V10.3333H10.333V6ZM2.99934 2.33333H1.66634V4.66667H10.333V2.33333H8.99967V3C8.99967 3.18409 8.85044 3.33333 8.66634 3.33333H7.99967C7.81558 3.33333 7.66634 3.18409 7.66634 3V2.33333H4.33301V3C4.33301 3.18409 4.18377 3.33333 3.99967 3.33333H3.33301C3.14891 3.33333 2.99967 3.18409 2.99967 3L2.99934 2.33333Z" />
</svg>
