<svg  xmlns="http://www.w3.org/2000/svg">
<path fill-rule="evenodd" clip-rule="evenodd" d="M5.39181 0.645565C5.45607 0.281156 5.80357 0.0378325 6.16798 0.102088C6.53238 0.166343 6.77571 0.513844 6.71145 0.878253L6.3372 3.00076H10.9565L11.3718 0.645565C11.436 0.281156 11.7835 0.0378325 12.148 0.102088C12.5124 0.166343 12.7557 0.513844 12.6914 0.878253L12.3172 3.00076H14.7296C15.0996 3.00076 15.3996 3.30073 15.3996 3.67076C15.3996 4.04079 15.0996 4.34076 14.7296 4.34076H12.0809L11.2592 9.00073H13.3296C13.6996 9.00073 13.9996 9.3007 13.9996 9.67073C13.9996 10.0408 13.6996 10.3407 13.3296 10.3407H11.0229L10.6077 12.6959C10.5434 13.0604 10.1959 13.3037 9.83149 13.2394C9.46708 13.1752 9.22376 12.8277 9.28801 12.4633L9.66227 10.3407H5.04296L4.62767 12.6959C4.56342 13.0604 4.21592 13.3037 3.85151 13.2394C3.4871 13.1752 3.24378 12.8277 3.30803 12.4633L3.68229 10.3407H1.26961C0.899579 10.3407 0.599609 10.0408 0.599609 9.67073C0.599609 9.3007 0.899579 9.00073 1.26961 9.00073H3.91857L4.74025 4.34076H2.66961C2.29958 4.34076 1.99961 4.04079 1.99961 3.67076C1.99961 3.30073 2.29958 3.00076 2.66961 3.00076H4.97653L5.39181 0.645565ZM9.89855 9.00073L10.7202 4.34076H6.10092L5.27924 9.00073H9.89855Z" />
</svg>
