<svg  xmlns="http://www.w3.org/2000/svg">
<path fill-rule="evenodd" clip-rule="evenodd" d="M9.86089 1.875C10.1708 1.875 10.4681 1.99834 10.6869 2.21781L12.9094 4.4462C13.1275 4.6649 13.25 4.96117 13.25 5.27005V13.5417C13.25 13.8638 12.9888 14.125 12.6667 14.125H3.33333C3.01117 14.125 2.75 13.8638 2.75 13.5417V2.45833C2.75 2.13617 3.01117 1.875 3.33333 1.875H9.86089ZM9.39952 3.22286H4.0817V12.756H11.9167V5.74572C11.9167 5.59446 11.8567 5.44937 11.7499 5.34225L9.80418 3.39082C9.69696 3.2833 9.55137 3.22286 9.39952 3.22286ZM8.29167 9.16667C8.45275 9.16667 8.58333 9.29725 8.58333 9.45833V10.1746C8.58333 10.3356 8.45275 10.4662 8.29167 10.4662H5.66667C5.50558 10.4662 5.375 10.3356 5.375 10.1746V9.45833C5.375 9.29725 5.50558 9.16667 5.66667 9.16667H8.29167ZM10.3333 6.09561C10.4944 6.09561 10.625 6.22619 10.625 6.38727V7.125C10.625 7.28608 10.4944 7.41667 10.3333 7.41667H5.66667C5.50558 7.41667 5.375 7.28608 5.375 7.125V6.38727C5.375 6.22619 5.50558 6.09561 5.66667 6.09561H10.3333Z" fill="#86909C"/>
</svg>
