<svg viewBox="0 0 16 16" xmlns="http://www.w3.org/2000/svg">
<path fill-rule="evenodd" clip-rule="evenodd" d="M1.39672 10.5645C1.17769 10.5645 1.00014 10.742 1.00014 10.961L1.00022 14.3723C1.00022 14.4445 1.01991 14.5152 1.05716 14.577C1.17024 14.7646 1.41397 14.825 1.60155 14.7119L4.43091 13.0064C4.48618 12.9731 4.53249 12.9268 4.56581 12.8715C4.67889 12.6839 4.6185 12.4402 4.43091 12.3271L1.60148 10.6214C1.53968 10.5841 1.46888 10.5644 1.39672 10.5645ZM7.29199 12C7.1079 12 6.95866 12.1492 6.95866 12.3333V13C6.95866 13.1841 7.1079 13.3333 7.29199 13.3333H13.9587C14.1428 13.3333 14.292 13.1841 14.292 13V12.3333C14.292 12.1492 14.1428 12 13.9587 12H7.29199ZM2.62533 7C2.44123 7 2.29199 7.14924 2.29199 7.33333V8C2.29199 8.18409 2.44123 8.33333 2.62533 8.33333H13.9587C14.1428 8.33333 14.292 8.18409 14.292 8V7.33333C14.292 7.14924 14.1428 7 13.9587 7H2.62533ZM2.62533 2C2.44123 2 2.29199 2.14924 2.29199 2.33333V3C2.29199 3.18409 2.44123 3.33333 2.62533 3.33333H13.9587C14.1428 3.33333 14.292 3.18409 14.292 3V2.33333C14.292 2.14924 14.1428 2 13.9587 2H2.62533Z"/>
</svg>
